<svg width="786" height="747" viewBox="0 0 786 747" fill="none" xmlns="http://www.w3.org/2000/svg">
<g clip-path="url(#clip0_3330_1117)">
<path d="M786 0H0V747H786V0Z" fill="#F5F5F5"/>
<path d="M229.304 179.541L240.347 210.994L185.782 298.799H260.484V401.02H237.749C237.749 401.02 245.544 423.299 244.894 456.062C244.245 488.825 227.355 498.654 227.355 498.654L146.157 494.067L150.055 487.515L138.362 304.696L229.304 179.541Z" fill="#006D41"/>
<path d="M293.613 237.204H504.079V554.351H293.613V237.204Z" fill="#2B2B2B"/>
<path d="M184.483 501.931H244.245L259.835 492.102L350.777 501.931V748.31H184.483V501.931Z" fill="#1C8855"/>
<path d="M177.987 298.799H253.988V321.078L177.987 330.251V298.799Z" fill="#003E1F"/>
<path d="M175.388 352.53L242.945 345.978V382.672H175.388V352.53Z" fill="#003E1F"/>
<path d="M144.208 494.068H241.646L188.38 747H0L144.208 494.068Z" fill="#005230"/>
<path d="M350.777 549.764L381.307 523.554L397.547 539.837L415.736 523.554L446.916 549.764V746.998H350.777V549.764Z" fill="#006D41"/>
<path d="M446.916 525.52L538.507 496.688C538.507 496.688 595.671 528.141 645.04 559.593C694.408 591.046 728.187 629.706 728.187 629.706L672.972 746.999H446.916V525.52Z" fill="#1C8855"/>
<path d="M292.964 449.511L381.307 523.554L307.904 588.427L256.587 494.069L292.964 449.511Z" fill="#B5CCBA"/>
<path d="M504.079 449.511L415.736 523.554L489.139 588.427L540.456 494.069L504.079 449.511Z" fill="#B5CCBA"/>
<path d="M201.372 56.0461L464.455 0L500.182 193.958L490.438 197.234L473.549 118.603L254.638 166.437L277.374 269.968L248.143 275.866L201.372 56.0461Z" fill="#2B2B2B"/>
<path d="M305.306 301.421C305.306 320.239 290.182 335.495 271.527 335.495C252.872 335.495 237.749 320.239 237.749 301.421C237.749 282.602 252.872 267.347 271.527 267.347C290.182 267.347 305.306 282.602 305.306 301.421Z" fill="#00391F"/>
<path d="M545.653 237.205C545.653 256.023 530.529 271.279 511.874 271.279C493.22 271.279 478.096 256.023 478.096 237.205C478.096 218.386 493.22 203.131 511.874 203.131C530.529 203.131 545.653 218.386 545.653 237.205Z" fill="#00391F"/>
<path d="M520.969 326.32C520.969 390.737 469.2 442.956 405.342 442.956C341.484 442.956 289.716 390.737 289.716 326.32L254.638 166.437L475.497 114.67L500.182 193.958L520.969 326.32Z" fill="#006D41"/>
<path d="M252.689 165.782L464.455 0L500.182 193.958L490.438 197.234L473.549 118.603L252.689 165.782Z" fill="#2B2B2B"/>
<path d="M363.769 541.248H433.924L414.436 599.566H383.256L363.769 541.248Z" fill="#D1E8D5"/>
<path d="M422.231 748.309H375.461L388.453 605.462H409.24L422.231 748.309Z" fill="#D1E8D5"/>
<path d="M728.187 629.707L734.033 637.57L684.015 748.309H671.673L728.187 629.707Z" fill="#384F4F"/>
<path d="M734.033 637.57C734.033 637.57 748.324 648.054 763.264 678.851C778.205 709.649 786 748.309 786 748.309H684.015L734.033 637.57Z" fill="#1C8855"/>
<path d="M355.974 370.878C355.974 370.878 397.547 371.533 420.283 366.946C443.018 362.359 476.797 334.183 476.797 334.183L484.592 342.046C484.592 342.046 460.557 367.602 444.967 371.533C429.377 375.465 427.428 377.43 415.735 378.741C404.043 380.052 355.974 381.362 355.974 381.362V370.878Z" fill="#00391F"/>
<path d="M386.504 191.336L437.172 175.609L480.694 184.128L483.293 200.509L467.053 205.096L440.42 200.509L393 213.615L386.504 191.336Z" fill="#213528"/>
<path d="M326.063 177.71L416.176 159.009L418.533 170.561L328.419 189.264L326.063 177.71Z" fill="#005230"/>
<path d="M313.75 196.578L360.521 193.957L363.769 214.925L316.998 218.201L289.716 236.549L279.972 224.099L313.75 196.578Z" fill="#213528"/>
</g>
<defs>
<clipPath id="clip0_3330_1117">
<rect width="786" height="747" fill="white"/>
</clipPath>
</defs>
</svg>
