<svg width="600" height="571" viewBox="0 0 600 571" fill="none" xmlns="http://www.w3.org/2000/svg">
<path d="M170.641 137.776L176.725 165.776L138 227.999H195.5V305.999H178C178 305.999 184 322.999 183.5 347.999C183 372.999 170 377 170 377H110.5V371.999L101.5 232.499L170.641 137.776Z" fill="#006D41"/>
<path d="M221 271.998L307 337.999L383 295.338V343L301 411.924L221 343.415V271.998Z" fill="#00391F"/>
<path d="M184.987 381.776L192.811 377.561L192.5 377L232.19 448.833L265 420.088V570.276H145L184.987 381.776Z" fill="#1C8855"/>
<path d="M132 227.999H190.5V244.999L132 251.999V227.999Z" fill="#003E1F"/>
<path d="M130 268.999L182 263.999V291.999H130V268.999Z" fill="#003E1F"/>
<path d="M109 377H186L145 570.276H0L109 377Z" fill="#005230"/>
<path d="M265 420.088L287.573 400.426L301 411.924L315.357 399.856L339 420.526V570.276H265V420.088Z" fill="#006D41"/>
<path d="M339 420.526L371.5 449L409.831 379.131C409.831 379.131 453.5 402.999 491.5 426.999C529.5 450.999 555.5 480.499 555.5 480.499L512 570.276H339V420.526Z" fill="#1C8855"/>
<path d="M220.5 343L287.573 400.426L232 449L192.5 377L220.5 343Z" fill="#B5CCBA"/>
<path d="M383 343L315.357 399.856L371.5 449L411 377L383 343Z" fill="#B5CCBA"/>
<path d="M150 42.7661L352.5 0L380 148L372.5 150.5L359.5 90.5L191 127L208.113 204.323L186.5 210.77L150 42.7661Z" fill="#2B2B2B"/>
<path d="M230 230C230 244.359 218.359 256 204 256C189.641 256 178 244.359 178 230C178 215.64 189.641 204 204 204C218.359 204 230 215.64 230 230Z" fill="#00391F"/>
<path d="M415 181C415 195.359 403.359 207 389 207C374.641 207 363 195.359 363 181C363 166.64 374.641 155 389 155C403.359 155 415 166.64 415 181Z" fill="#00391F"/>
<path d="M396 248.999C396 298.153 356.153 337.999 307 337.999C257.847 337.999 218 298.153 218 248.999L191 127L359.5 90.5L372.5 150.5L380 148L396 248.999Z" fill="#006D41"/>
<path d="M275 413H329L314 457.5H290L275 413Z" fill="#D1E8D5"/>
<path d="M320 570.276H284L294 461.999H310L320 570.276Z" fill="#D1E8D5"/>
<path d="M555.5 480.499L560 486.499L521.5 570.276H512L555.5 480.499Z" fill="#005230"/>
<path d="M560 486.499C560 486.499 570.5 501.276 582 524.776C593.5 548.276 600 570.276 600 570.276H521.5L560 486.499Z" fill="#1C8855"/>
<path d="M269 282.999C269 282.999 301 283.499 318.5 279.999C336 276.499 362 254.999 362 254.999L368 260.999C368 260.999 356.5 272.276 347 277.776C337.5 283.276 324 287.999 315 288.999C306 289.999 269 290.999 269 290.999V282.999Z" fill="#213528"/>
<path d="M292.5 145.999L331.5 133.999L365 140.499L367 152.999L356.5 155L334 149.999L297 160.776L292.5 145.999Z" fill="#213528"/>
<path d="M245.977 135.602L315.339 121.332L317.153 130.147L247.791 144.418L245.977 135.602Z" fill="#213528"/>
<path d="M236.5 149.999L272.5 147.999L275 163.999L239 166.499L218 180.499L210.5 170.999L236.5 149.999Z" fill="#213528"/>
</svg>
