<svg width="605" height="570" viewBox="0 0 605 570" fill="none" xmlns="http://www.w3.org/2000/svg">
<g clip-path="url(#clip0_3330_1143)">
<path d="M176.5 136.999L185 160.999L143 227.999H200.5V305.999H183C183 305.999 189 322.999 188.5 347.999C188 372.999 175 380.499 175 380.499L112.5 376.999L115.5 371.999L106.5 232.499L176.5 136.999Z" fill="#006D41"/>
<path d="M226 180.999H388V422.999H226V180.999Z" fill="#2B2B2B"/>
<path d="M142 382.999H188L200 375.499L270 382.999V570.999H142V382.999Z" fill="#1C8855"/>
<path d="M137 227.999H195.5V244.999L137 251.999V227.999Z" fill="#003E1F"/>
<path d="M135 268.999L187 263.999V291.999H135V268.999Z" fill="#003E1F"/>
<path d="M111 377H186L145 570H0L111 377Z" fill="#005230"/>
<path d="M270 419.499L293.5 399.499L306 411.924L320 399.499L344 419.499V569.999H270V419.499Z" fill="#006D41"/>
<path d="M344 400.999L414.5 378.999C414.5 378.999 458.5 402.999 496.5 426.999C534.5 450.999 560.5 480.499 560.5 480.499L518 569.999H344V400.999Z" fill="#1C8855"/>
<path d="M225.5 343L293.5 399.499L237 449L197.5 377L225.5 343Z" fill="#B5CCBA"/>
<path d="M388 343L320 399.499L376.5 449L416 377L388 343Z" fill="#B5CCBA"/>
<path d="M155 42.7661L357.5 0L385 148L377.5 150.5L364.5 90.5L196 127L213.5 206L191.001 210.5L155 42.7661Z" fill="#2B2B2B"/>
<path d="M235 230C235 244.359 223.359 256 209 256C194.641 256 183 244.359 183 230C183 215.64 194.641 204 209 204C223.359 204 235 215.64 235 230Z" fill="#00391F"/>
<path d="M420 181C420 195.359 408.359 207 394 207C379.641 207 368 195.359 368 181C368 166.64 379.641 155 394 155C408.359 155 420 166.64 420 181Z" fill="#00391F"/>
<path d="M401 248.999C401 298.153 361.153 337.999 312 337.999C262.847 337.999 223 298.153 223 248.999L196 127L366 87.4993L385 148L401 248.999Z" fill="#006D41"/>
<path d="M194.5 126.5L357.5 0L385 148L377.5 150.5L364.5 90.5L194.5 126.5Z" fill="#2B2B2B"/>
<path d="M280 413H334L319 457.5H295L280 413Z" fill="#D1E8D5"/>
<path d="M325 570.999H289L299 461.999H315L325 570.999Z" fill="#D1E8D5"/>
<path d="M560.5 480.499L565 486.499L526.5 570.999H517L560.5 480.499Z" fill="#384F4F"/>
<path d="M565 486.499C565 486.499 576 494.499 587.5 517.999C599 541.499 605 570.999 605 570.999H526.5L565 486.499Z" fill="#1C8855"/>
<path d="M274 282.999C274 282.999 306 283.499 323.5 279.999C341 276.499 367 254.999 367 254.999L373 260.999C373 260.999 354.5 280.499 342.5 283.499C330.5 286.499 329 287.999 320 288.999C311 289.999 274 290.999 274 290.999V282.999Z" fill="#00391F"/>
<path d="M297.5 145.999L336.5 133.999L370 140.499L372 152.999L359.5 156.499L339 152.999L302.5 162.999L297.5 145.999Z" fill="#213528"/>
<path d="M250.977 135.602L320.339 121.332L322.153 130.147L252.791 144.418L250.977 135.602Z" fill="#005230"/>
<path d="M241.5 149.999L277.5 147.999L280 163.999L244 166.499L223 180.499L215.5 170.999L241.5 149.999Z" fill="#213528"/>
</g>
<defs>
<clipPath id="clip0_3330_1143">
<rect width="605" height="570" fill="white"/>
</clipPath>
</defs>
</svg>
