<svg width="2107" height="2009" viewBox="0 0 2107 2009" fill="none" xmlns="http://www.w3.org/2000/svg">
<g clip-path="url(#clip0_3325_9512)">
<path d="M602.251 482.016L632.1 566.457L484.61 802.189H686.531V1076.62H625.077C625.077 1076.62 646.147 1136.44 644.391 1224.4C642.635 1312.36 596.983 1338.74 596.983 1338.74L377.504 1326.43L388.039 1308.84L356.434 818.022L602.251 482.016Z" fill="#006D41"/>
<path d="M776.078 636.825H1344.97V1488.27H776.078V636.825Z" fill="#2B2B2B"/>
<path d="M481.098 1347.54H642.635L684.775 1321.15L930.592 1347.54V2009H481.098V1347.54Z" fill="#1C8855"/>
<path d="M463.54 802.189H668.973V862.002L463.54 886.63V802.189Z" fill="#003E1F"/>
<path d="M456.517 946.443L639.123 928.851V1027.37H456.517V946.443Z" fill="#003E1F"/>
<path d="M389.795 1326.43H653.17L509.192 2005.48H0L389.795 1326.43Z" fill="#003E1F"/>
<path d="M930.592 1475.96L1013.12 1405.59L1057.01 1449.31L1106.17 1405.59L1190.45 1475.96V2005.48H930.592V1475.96Z" fill="#006D41"/>
<path d="M1190.46 1410.87L1438.03 1333.47C1438.03 1333.47 1592.54 1417.91 1725.98 1502.35C1859.43 1586.79 1950.73 1690.58 1950.73 1690.58L1801.49 2005.48H1190.46V1410.87Z" fill="#1C8855"/>
<path d="M774.323 1206.81L1013.12 1405.59L814.707 1579.76L675.996 1326.43L774.323 1206.81Z" fill="#B5CCBA"/>
<path d="M1344.97 1206.81L1106.18 1405.59L1304.58 1579.76L1443.3 1326.43L1344.97 1206.81Z" fill="#B5CCBA"/>
<path d="M526.75 150.468L1237.86 0L1334.43 520.722L1308.1 529.518L1262.44 318.414L670.728 446.835L732.183 724.788L653.174 740.621L526.75 150.468Z" fill="#2B2B2B"/>
<path d="M807.683 809.23C807.683 859.75 766.804 900.708 716.38 900.708C665.956 900.708 625.077 859.75 625.077 809.23C625.077 758.706 665.956 717.751 716.38 717.751C766.804 717.751 807.683 758.706 807.683 809.23Z" fill="#00391F"/>
<path d="M1457.34 636.828C1457.34 687.349 1416.46 728.306 1366.04 728.306C1315.61 728.306 1274.73 687.349 1274.73 636.828C1274.73 586.304 1315.61 545.35 1366.04 545.35C1416.46 545.35 1457.34 586.304 1457.34 636.828Z" fill="#00391F"/>
<path d="M1390.62 876.075C1390.62 1049.02 1250.69 1189.21 1078.08 1189.21C905.473 1189.21 765.543 1049.02 765.543 876.075L670.728 446.835L1267.71 307.856L1334.43 520.721L1390.62 876.075Z" fill="#006D41"/>
<path d="M665.461 445.076L1237.86 0L1334.43 520.722L1308.1 529.518L1262.44 318.414L665.461 445.076Z" fill="#2B2B2B"/>
<path d="M965.708 1453.09H1155.34L1102.66 1609.66H1018.38L965.708 1453.09Z" fill="#D1E8D5"/>
<path d="M1123.73 2009H997.313L1032.43 1625.49H1088.62L1123.73 2009Z" fill="#D1E8D5"/>
<path d="M1950.73 1690.58L1966.53 1711.69L1831.33 2009H1797.97L1950.73 1690.58Z" fill="#384F4F"/>
<path d="M1966.53 1711.69C1966.53 1711.69 2005.16 1739.84 2045.55 1822.52C2085.93 1905.2 2107 2009 2107 2009H1831.33L1966.53 1711.69Z" fill="#1C8855"/>
<path d="M944.638 995.7C944.638 995.7 1057.01 997.46 1118.47 985.145C1179.92 972.831 1271.22 897.186 1271.22 897.186L1292.29 918.296C1292.29 918.296 1227.33 986.904 1185.19 997.46C1143.05 1008.01 1137.78 1013.29 1106.18 1016.81C1074.57 1020.33 944.638 1023.85 944.638 1023.85V995.7Z" fill="#00391F"/>
<path d="M1027.16 513.682L1164.12 471.461L1281.76 494.33L1288.78 538.31L1244.89 550.625L1172.9 538.31L1044.72 573.494L1027.16 513.682Z" fill="#213528"/>
<path d="M863.789 477.101L1107.37 426.894L1113.74 457.908L870.159 508.119L863.789 477.101Z" fill="#005230"/>
<path d="M830.509 527.755L956.929 520.718L965.708 577.012L839.288 585.808L765.543 635.065L739.206 601.641L830.509 527.755Z" fill="#213528"/>
</g>
<defs>
<clipPath id="clip0_3325_9512">
<rect width="2107" height="2009" fill="white"/>
</clipPath>
</defs>
</svg>
