<svg width="631" height="600" viewBox="0 0 631 600" fill="none" xmlns="http://www.w3.org/2000/svg">
<g clip-path="url(#clip0_3328_1083)">
<mask id="mask0_3328_1083" style="mask-type:luminance" maskUnits="userSpaceOnUse" x="0" y="0" width="631" height="602">
<path d="M631 0H0V602H631V0Z" fill="white"/>
</mask>
<g mask="url(#mask0_3328_1083)">
<path d="M180.361 144.437L189.3 169.74L145.13 240.377H205.601V322.612H187.197C187.197 322.612 193.507 340.535 192.981 366.892C192.455 393.249 178.783 401.156 178.783 401.156L113.054 397.466L116.209 392.195L106.744 245.121L180.361 144.437Z" fill="#006D41"/>
<path d="M232.418 190.826H402.788V445.964H232.418V190.826Z" fill="#2B2B2B"/>
<path d="M144.078 403.792H192.455L205.075 395.885L278.692 403.792V601.999H144.078V403.792Z" fill="#1C8855"/>
<path d="M138.82 240.377H200.343V258.3L138.82 265.68V240.377Z" fill="#003E1F"/>
<path d="M136.717 283.603L191.403 278.332V307.852H136.717V283.603Z" fill="#003E1F"/>
<path d="M116.735 397.468H195.61L152.492 600.946H0L116.735 397.468Z" fill="#003E1F"/>
<path d="M278.692 442.274L303.406 421.188L316.552 434.288L331.275 421.188L356.515 442.274V600.945H278.692V442.274Z" fill="#006D41"/>
<path d="M356.515 422.77L430.658 399.575C430.658 399.575 476.931 424.878 516.894 450.181C556.858 475.484 584.201 506.586 584.201 506.586L539.505 600.945H356.515V422.77Z" fill="#1C8855"/>
<path d="M231.892 361.622L303.406 421.188L243.987 473.376L202.446 397.467L231.892 361.622Z" fill="#B5CCBA"/>
<path d="M402.788 361.622L331.275 421.188L390.694 473.376L432.235 397.467L402.788 361.622Z" fill="#B5CCBA"/>
<path d="M157.75 45.0879L370.712 0L399.633 156.035L391.746 158.671L378.074 95.4133L200.868 133.895L219.272 217.184L195.611 221.928L157.75 45.0879Z" fill="#2B2B2B"/>
<path d="M241.883 242.487C241.883 257.625 229.641 269.898 214.54 269.898C199.439 269.898 187.197 257.625 187.197 242.487C187.197 227.347 199.439 215.075 214.54 215.075C229.641 215.075 241.883 227.347 241.883 242.487Z" fill="#00391F"/>
<path d="M436.442 190.827C436.442 205.965 424.199 218.238 409.098 218.238C393.997 218.238 381.755 205.965 381.755 190.827C381.755 175.687 393.997 163.415 409.098 163.415C424.199 163.415 436.442 175.687 436.442 190.827Z" fill="#00391F"/>
<path d="M416.46 262.517C416.46 314.34 374.554 356.349 322.862 356.349C271.169 356.349 229.263 314.34 229.263 262.517L200.868 133.895L379.652 92.2495L399.633 156.035L416.46 262.517Z" fill="#006D41"/>
<path d="M199.291 133.368L370.713 0L399.633 156.035L391.746 158.671L378.074 95.4133L199.291 133.368Z" fill="#2B2B2B"/>
<path d="M289.208 435.422H345.998L330.223 482.338H304.983L289.208 435.422Z" fill="#D1E8D5"/>
<path d="M336.533 601.999H298.673L309.19 487.081H326.017L336.533 601.999Z" fill="#D1E8D5"/>
<path d="M584.201 506.585L588.933 512.911L548.444 601.999H538.453L584.201 506.585Z" fill="#384F4F"/>
<path d="M588.933 512.911C588.933 512.911 600.502 521.345 612.596 546.121C624.69 570.897 631 601.999 631 601.999H548.444L588.933 512.911Z" fill="#1C8855"/>
<path d="M282.898 298.363C282.898 298.363 316.552 298.891 334.956 295.201C353.36 291.511 380.703 268.843 380.703 268.843L387.013 275.169C387.013 275.169 367.558 295.728 354.938 298.891C342.318 302.053 340.74 303.635 331.275 304.689C321.81 305.743 282.898 306.798 282.898 306.798V298.363Z" fill="#00391F"/>
<path d="M307.612 153.925L348.627 141.274L383.858 148.127L385.962 161.305L372.816 164.995L351.257 161.305L312.871 171.848L307.612 153.925Z" fill="#213528"/>
<path d="M258.686 142.964L331.631 127.919L333.539 137.213L260.594 152.259L258.686 142.964Z" fill="#005230"/>
<path d="M248.719 158.143L286.579 156.034L289.208 172.903L251.348 175.539L229.263 190.299L221.376 180.283L248.719 158.143Z" fill="#213528"/>
</g>
</g>
<defs>
<clipPath id="clip0_3328_1083">
<rect width="631" height="600" fill="white"/>
</clipPath>
</defs>
</svg>
